<mxfile host="app.diagrams.net" agent="Mozilla/5.0 (Windows NT 10.0; Win64; x64) AppleWebKit/537.36 (KHTML, like Gecko) Chrome/132.0.0.0 Safari/537.36" version="26.0.10">
  <diagram id="6a731a19-8d31-9384-78a2-239565b7b9f0" name="Page-1">
    <mxGraphModel dx="1120" dy="460" grid="1" gridSize="10" guides="1" tooltips="1" connect="1" arrows="1" fold="1" page="1" pageScale="1" pageWidth="1169" pageHeight="827" background="none" math="0" shadow="0">
      <root>
        <mxCell id="0" />
        <mxCell id="1" parent="0" />
        <mxCell id="2" value="START" style="shape=mxgraph.flowchart.terminator;strokeWidth=2;gradientColor=none;gradientDirection=north;fontStyle=0;html=1;" parent="1" vertex="1">
          <mxGeometry x="260" y="60" width="120" height="30" as="geometry" />
        </mxCell>
        <mxCell id="7" style="fontStyle=1;strokeColor=#003366;strokeWidth=1;html=1;" parent="1" source="2" edge="1">
          <mxGeometry relative="1" as="geometry">
            <mxPoint x="320" y="130" as="targetPoint" />
          </mxGeometry>
        </mxCell>
        <mxCell id="40" value="STOP" style="shape=mxgraph.flowchart.terminator;strokeWidth=2;gradientColor=none;gradientDirection=north;fontStyle=0;html=1;" parent="1" vertex="1">
          <mxGeometry x="260" y="760" width="120" height="30" as="geometry" />
        </mxCell>
        <mxCell id="43" value="" style="edgeStyle=elbowEdgeStyle;elbow=vertical;exitX=0.5;exitY=1;exitPerimeter=0;entryX=0.5;entryY=0;entryPerimeter=0;fontStyle=1;strokeColor=#003366;strokeWidth=1;html=1;" parent="1" target="40" edge="1">
          <mxGeometry width="100" height="100" as="geometry">
            <mxPoint x="320" y="660" as="sourcePoint" />
            <mxPoint x="100" y="-1150" as="targetPoint" />
          </mxGeometry>
        </mxCell>
        <mxCell id="45" value="" style="edgeStyle=elbowEdgeStyle;elbow=horizontal;exitX=1;exitY=0.5;exitPerimeter=0;entryX=0.905;entryY=0.5;entryPerimeter=0;fontStyle=1;strokeColor=#003366;strokeWidth=1;html=1;" parent="1" target="34" edge="1">
          <mxGeometry width="100" height="100" as="geometry">
            <mxPoint x="380.5" y="1119.25" as="sourcePoint" />
            <mxPoint x="100" as="targetPoint" />
            <Array as="points">
              <mxPoint x="950" y="1320" />
            </Array>
          </mxGeometry>
        </mxCell>
        <mxCell id="-0H8GwLjbro-u39bDVQd-55" value="Enter Contract Number&lt;div&gt;Enter Contact First and Last Names&lt;/div&gt;&lt;div&gt;Enter Date (MM/DD/YYYY)&lt;/div&gt;&lt;div&gt;Enter Number of Guests&lt;/div&gt;" style="shape=parallelogram;perimeter=parallelogramPerimeter;whiteSpace=wrap;html=1;fixedSize=1;" vertex="1" parent="1">
          <mxGeometry x="120" y="130" width="400" height="110" as="geometry" />
        </mxCell>
        <mxCell id="-0H8GwLjbro-u39bDVQd-56" style="fontStyle=1;strokeColor=#003366;strokeWidth=1;html=1;" edge="1" parent="1">
          <mxGeometry relative="1" as="geometry">
            <mxPoint x="319.5" y="240" as="sourcePoint" />
            <mxPoint x="319.5" y="280" as="targetPoint" />
          </mxGeometry>
        </mxCell>
        <mxCell id="-0H8GwLjbro-u39bDVQd-60" value="" style="edgeStyle=orthogonalEdgeStyle;rounded=0;orthogonalLoop=1;jettySize=auto;html=1;" edge="1" parent="1" source="-0H8GwLjbro-u39bDVQd-57" target="-0H8GwLjbro-u39bDVQd-58">
          <mxGeometry relative="1" as="geometry" />
        </mxCell>
        <mxCell id="-0H8GwLjbro-u39bDVQd-57" value="Enter Options:&lt;div&gt;Cocktails (Y/N)&lt;/div&gt;&lt;div&gt;Appetizers (Y/N)&lt;/div&gt;&lt;div&gt;Dinner (Y/N)&lt;/div&gt;&lt;div&gt;Band (Y/N)&lt;/div&gt;" style="shape=parallelogram;perimeter=parallelogramPerimeter;whiteSpace=wrap;html=1;fixedSize=1;" vertex="1" parent="1">
          <mxGeometry x="200" y="280" width="240" height="120" as="geometry" />
        </mxCell>
        <mxCell id="-0H8GwLjbro-u39bDVQd-58" value="Calculate Total Cost:&lt;div&gt;Total Cost = Number of Guests *&amp;nbsp; $10&lt;/div&gt;" style="rounded=0;whiteSpace=wrap;html=1;" vertex="1" parent="1">
          <mxGeometry x="150" y="440" width="340" height="60" as="geometry" />
        </mxCell>
        <mxCell id="-0H8GwLjbro-u39bDVQd-59" style="fontStyle=1;strokeColor=#003366;strokeWidth=1;html=1;" edge="1" parent="1">
          <mxGeometry relative="1" as="geometry">
            <mxPoint x="319.5" y="400" as="sourcePoint" />
            <mxPoint x="319.5" y="440" as="targetPoint" />
          </mxGeometry>
        </mxCell>
        <mxCell id="-0H8GwLjbro-u39bDVQd-61" style="fontStyle=1;strokeColor=#003366;strokeWidth=1;html=1;" edge="1" parent="1">
          <mxGeometry relative="1" as="geometry">
            <mxPoint x="319.5" y="500" as="sourcePoint" />
            <mxPoint x="319.5" y="540" as="targetPoint" />
          </mxGeometry>
        </mxCell>
        <mxCell id="-0H8GwLjbro-u39bDVQd-62" value="Display Contract Details:&lt;div&gt;- Contract Number&lt;/div&gt;&lt;div&gt;- Contact Name&lt;/div&gt;&lt;div&gt;- Date&lt;/div&gt;&lt;div&gt;- Guests Count&lt;/div&gt;&lt;div&gt;- Selected Options&lt;/div&gt;&lt;div&gt;-Total Cost&lt;/div&gt;" style="shape=parallelogram;perimeter=parallelogramPerimeter;whiteSpace=wrap;html=1;fixedSize=1;" vertex="1" parent="1">
          <mxGeometry x="165" y="540" width="310" height="120" as="geometry" />
        </mxCell>
      </root>
    </mxGraphModel>
  </diagram>
</mxfile>
